<svg height="2654" width="720" xmlns="http://www.w3.org/2000/svg">
<rect height="2654" fill="#555" width="720"></rect>
<text fill="#7f7" font-family="Courier New" font-size="12" xml:space="preserve">
<tspan x="10" y="26">39 megabytes installed</tspan>
<tspan x="10" y="42"></tspan>
<tspan x="10" y="58">node_modules</tspan>
<tspan x="10" y="74">└─┬ ember-data-factory-guy@2.12.3 </tspan>
<tspan x="10" y="90">  ├─┬ broccoli-funnel@1.2.0 </tspan>
<tspan x="10" y="106">  │ ├── array-equal@1.0.0 </tspan>
<tspan x="10" y="122">  │ ├── blank-object@1.0.2 </tspan>
<tspan x="10" y="138">  │ ├─┬ broccoli-plugin@1.3.0 </tspan>
<tspan x="10" y="154">  │ │ ├─┬ promise-map-series@0.2.3 </tspan>
<tspan x="10" y="170">  │ │ │ └── rsvp@3.5.0 </tspan>
<tspan x="10" y="186">  │ │ └─┬ quick-temp@0.1.8 </tspan>
<tspan x="10" y="202">  │ │   ├── mktemp@0.4.0 </tspan>
<tspan x="10" y="218">  │ │   └─┬ underscore.string@3.3.4 </tspan>
<tspan x="10" y="234">  │ │     ├── sprintf-js@1.0.3 </tspan>
<tspan x="10" y="250">  │ │     └── util-deprecate@1.0.2 </tspan>
<tspan x="10" y="266">  │ ├─┬ debug@2.6.4 </tspan>
<tspan x="10" y="282">  │ │ └── ms@0.7.3 </tspan>
<tspan x="10" y="298">  │ ├── exists-sync@0.0.4 </tspan>
<tspan x="10" y="314">  │ ├── fast-ordered-set@1.0.3 </tspan>
<tspan x="10" y="330">  │ ├─┬ fs-tree-diff@0.5.6 </tspan>
<tspan x="10" y="346">  │ │ └── object-assign@4.1.1 </tspan>
<tspan x="10" y="362">  │ ├─┬ heimdalljs@0.2.4 </tspan>
<tspan x="10" y="378">  │ │ └── rsvp@3.2.1 </tspan>
<tspan x="10" y="394">  │ ├─┬ minimatch@3.0.3 </tspan>
<tspan x="10" y="410">  │ │ └─┬ brace-expansion@1.1.7 </tspan>
<tspan x="10" y="426">  │ │   ├── balanced-match@0.4.2 </tspan>
<tspan x="10" y="442">  │ │   └── concat-map@0.0.1 </tspan>
<tspan x="10" y="458">  │ ├─┬ mkdirp@0.5.1 </tspan>
<tspan x="10" y="474">  │ │ └── minimist@0.0.8 </tspan>
<tspan x="10" y="490">  │ ├── path-posix@1.0.0 </tspan>
<tspan x="10" y="506">  │ ├─┬ rimraf@2.6.1 </tspan>
<tspan x="10" y="522">  │ │ └─┬ glob@7.1.1 </tspan>
<tspan x="10" y="538">  │ │   ├── fs.realpath@1.0.0 </tspan>
<tspan x="10" y="554">  │ │   ├─┬ inflight@1.0.6 </tspan>
<tspan x="10" y="570">  │ │   │ └── wrappy@1.0.2 </tspan>
<tspan x="10" y="586">  │ │   ├── inherits@2.0.3 </tspan>
<tspan x="10" y="602">  │ │   ├── once@1.4.0 </tspan>
<tspan x="10" y="618">  │ │   └── path-is-absolute@1.0.1 </tspan>
<tspan x="10" y="634">  │ ├── symlink-or-copy@1.1.8 </tspan>
<tspan x="10" y="650">  │ └─┬ walk-sync@0.3.1 </tspan>
<tspan x="10" y="666">  │   ├── ensure-posix-path@1.0.2 </tspan>
<tspan x="10" y="682">  │   └── matcher-collection@1.0.4 </tspan>
<tspan x="10" y="698">  ├─┬ broccoli-merge-trees@1.2.4 </tspan>
<tspan x="10" y="714">  │ ├─┬ can-symlink@1.0.0 </tspan>
<tspan x="10" y="730">  │ │ └─┬ tmp@0.0.28 </tspan>
<tspan x="10" y="746">  │ │   └── os-tmpdir@1.0.2 </tspan>
<tspan x="10" y="762">  │ └── heimdalljs-logger@0.1.9 </tspan>
<tspan x="10" y="778">  ├─┬ ember-cli-babel@6.0.0 </tspan>
<tspan x="10" y="794">  │ ├── amd-name-resolver@0.0.6 </tspan>
<tspan x="10" y="810">  │ ├─┬ babel-plugin-transform-es2015-modules-amd@6.24.1 </tspan>
<tspan x="10" y="826">  │ │ ├─┬ babel-plugin-transform-es2015-modules-commonjs@6.24.1 </tspan>
<tspan x="10" y="842">  │ │ │ ├── babel-plugin-transform-strict-mode@6.24.1 </tspan>
<tspan x="10" y="858">  │ │ │ └─┬ babel-types@6.24.1 </tspan>
<tspan x="10" y="874">  │ │ │   ├── esutils@2.0.2 </tspan>
<tspan x="10" y="890">  │ │ │   └── to-fast-properties@1.0.2 </tspan>
<tspan x="10" y="906">  │ │ ├── babel-runtime@6.23.0 </tspan>
<tspan x="10" y="922">  │ │ └─┬ babel-template@6.24.1 </tspan>
<tspan x="10" y="938">  │ │   ├─┬ babel-traverse@6.24.1 </tspan>
<tspan x="10" y="954">  │ │   │ └── globals@9.17.0 </tspan>
<tspan x="10" y="970">  │ │   ├── babylon@6.17.0 </tspan>
<tspan x="10" y="986">  │ │   └── lodash@4.17.4 </tspan>
<tspan x="10" y="1002">  │ ├─┬ babel-polyfill@6.23.0 </tspan>
<tspan x="10" y="1018">  │ │ ├── core-js@2.4.1 </tspan>
<tspan x="10" y="1034">  │ │ └── regenerator-runtime@0.10.3 </tspan>
<tspan x="10" y="1050">  │ ├─┬ babel-preset-env@1.4.0 </tspan>
<tspan x="10" y="1066">  │ │ ├── babel-plugin-check-es2015-constants@6.22.0 </tspan>
<tspan x="10" y="1082">  │ │ ├── babel-plugin-syntax-trailing-function-commas@6.22.0 </tspan>
<tspan x="10" y="1098">  │ │ ├─┬ babel-plugin-transform-async-to-generator@6.24.1 </tspan>
<tspan x="10" y="1114">  │ │ │ ├── babel-helper-remap-async-to-generator@6.24.1 </tspan>
<tspan x="10" y="1130">  │ │ │ └── babel-plugin-syntax-async-functions@6.13.0 </tspan>
<tspan x="10" y="1146">  │ │ ├── babel-plugin-transform-es2015-arrow-functions@6.22.0 </tspan>
<tspan x="10" y="1162">  │ │ ├── babel-plugin-transform-es2015-block-scoped-functions@6.22.0 </tspan>
<tspan x="10" y="1178">  │ │ ├── babel-plugin-transform-es2015-block-scoping@6.24.1 </tspan>
<tspan x="10" y="1194">  │ │ ├─┬ babel-plugin-transform-es2015-classes@6.24.1 </tspan>
<tspan x="10" y="1210">  │ │ │ ├── babel-helper-define-map@6.24.1 </tspan>
<tspan x="10" y="1226">  │ │ │ ├── babel-helper-function-name@6.24.1 </tspan>
<tspan x="10" y="1242">  │ │ │ ├── babel-helper-optimise-call-expression@6.24.1 </tspan>
<tspan x="10" y="1258">  │ │ │ ├── babel-helper-replace-supers@6.24.1 </tspan>
<tspan x="10" y="1274">  │ │ │ └── babel-messages@6.23.0 </tspan>
<tspan x="10" y="1290">  │ │ ├── babel-plugin-transform-es2015-computed-properties@6.24.1 </tspan>
<tspan x="10" y="1306">  │ │ ├── babel-plugin-transform-es2015-destructuring@6.23.0 </tspan>
<tspan x="10" y="1322">  │ │ ├── babel-plugin-transform-es2015-duplicate-keys@6.24.1 </tspan>
<tspan x="10" y="1338">  │ │ ├── babel-plugin-transform-es2015-for-of@6.23.0 </tspan>
<tspan x="10" y="1354">  │ │ ├── babel-plugin-transform-es2015-function-name@6.24.1 </tspan>
<tspan x="10" y="1370">  │ │ ├── babel-plugin-transform-es2015-literals@6.22.0 </tspan>
<tspan x="10" y="1386">  │ │ ├─┬ babel-plugin-transform-es2015-modules-systemjs@6.24.1 </tspan>
<tspan x="10" y="1402">  │ │ │ └── babel-helper-hoist-variables@6.24.1 </tspan>
<tspan x="10" y="1418">  │ │ ├── babel-plugin-transform-es2015-modules-umd@6.24.1 </tspan>
<tspan x="10" y="1434">  │ │ ├── babel-plugin-transform-es2015-object-super@6.24.1 </tspan>
<tspan x="10" y="1450">  │ │ ├─┬ babel-plugin-transform-es2015-parameters@6.24.1 </tspan>
<tspan x="10" y="1466">  │ │ │ ├── babel-helper-call-delegate@6.24.1 </tspan>
<tspan x="10" y="1482">  │ │ │ └── babel-helper-get-function-arity@6.24.1 </tspan>
<tspan x="10" y="1498">  │ │ ├── babel-plugin-transform-es2015-shorthand-properties@6.24.1 </tspan>
<tspan x="10" y="1514">  │ │ ├── babel-plugin-transform-es2015-spread@6.22.0 </tspan>
<tspan x="10" y="1530">  │ │ ├─┬ babel-plugin-transform-es2015-sticky-regex@6.24.1 </tspan>
<tspan x="10" y="1546">  │ │ │ └── babel-helper-regex@6.24.1 </tspan>
<tspan x="10" y="1562">  │ │ ├── babel-plugin-transform-es2015-template-literals@6.22.0 </tspan>
<tspan x="10" y="1578">  │ │ ├── babel-plugin-transform-es2015-typeof-symbol@6.23.0 </tspan>
<tspan x="10" y="1594">  │ │ ├─┬ babel-plugin-transform-es2015-unicode-regex@6.24.1 </tspan>
<tspan x="10" y="1610">  │ │ │ └─┬ regexpu-core@2.0.0 </tspan>
<tspan x="10" y="1626">  │ │ │   ├── regenerate@1.3.2 </tspan>
<tspan x="10" y="1642">  │ │ │   ├── regjsgen@0.2.0 </tspan>
<tspan x="10" y="1658">  │ │ │   └─┬ regjsparser@0.1.5 </tspan>
<tspan x="10" y="1674">  │ │ │     └── jsesc@0.5.0 </tspan>
<tspan x="10" y="1690">  │ │ ├─┬ babel-plugin-transform-exponentiation-operator@6.24.1 </tspan>
<tspan x="10" y="1706">  │ │ │ ├─┬ babel-helper-builder-binary-assignment-operator-visitor@6.24.1 </tspan>
<tspan x="10" y="1722">  │ │ │ │ └── babel-helper-explode-assignable-expression@6.24.1 </tspan>
<tspan x="10" y="1738">  │ │ │ └── babel-plugin-syntax-exponentiation-operator@6.13.0 </tspan>
<tspan x="10" y="1754">  │ │ ├─┬ babel-plugin-transform-regenerator@6.24.1 </tspan>
<tspan x="10" y="1770">  │ │ │ └── regenerator-transform@0.9.11 </tspan>
<tspan x="10" y="1786">  │ │ ├─┬ browserslist@1.7.7 </tspan>
<tspan x="10" y="1802">  │ │ │ ├── caniuse-db@1.0.30000660 </tspan>
<tspan x="10" y="1818">  │ │ │ └── electron-to-chromium@1.3.8 </tspan>
<tspan x="10" y="1834">  │ │ └─┬ invariant@2.2.2 </tspan>
<tspan x="10" y="1850">  │ │   └─┬ loose-envify@1.3.1 </tspan>
<tspan x="10" y="1866">  │ │     └── js-tokens@3.0.1 </tspan>
<tspan x="10" y="1882">  │ ├─┬ broccoli-babel-transpiler@6.0.0 </tspan>
<tspan x="10" y="1898">  │ │ ├─┬ babel-core@6.24.1 </tspan>
<tspan x="10" y="1914">  │ │ │ ├─┬ babel-code-frame@6.22.0 </tspan>
<tspan x="10" y="1930">  │ │ │ │ └─┬ chalk@1.1.3 </tspan>
<tspan x="10" y="1946">  │ │ │ │   ├── ansi-styles@2.2.1 </tspan>
<tspan x="10" y="1962">  │ │ │ │   ├── escape-string-regexp@1.0.5 </tspan>
<tspan x="10" y="1978">  │ │ │ │   ├─┬ has-ansi@2.0.0 </tspan>
<tspan x="10" y="1994">  │ │ │ │   │ └── ansi-regex@2.1.1 </tspan>
<tspan x="10" y="2010">  │ │ │ │   ├── strip-ansi@3.0.1 </tspan>
<tspan x="10" y="2026">  │ │ │ │   └── supports-color@2.0.0 </tspan>
<tspan x="10" y="2042">  │ │ │ ├─┬ babel-generator@6.24.1 </tspan>
<tspan x="10" y="2058">  │ │ │ │ ├─┬ detect-indent@4.0.0 </tspan>
<tspan x="10" y="2074">  │ │ │ │ │ └─┬ repeating@2.0.1 </tspan>
<tspan x="10" y="2090">  │ │ │ │ │   └─┬ is-finite@1.0.2 </tspan>
<tspan x="10" y="2106">  │ │ │ │ │     └── number-is-nan@1.0.1 </tspan>
<tspan x="10" y="2122">  │ │ │ │ ├── jsesc@1.3.0 </tspan>
<tspan x="10" y="2138">  │ │ │ │ └── trim-right@1.0.1 </tspan>
<tspan x="10" y="2154">  │ │ │ ├── babel-helpers@6.24.1 </tspan>
<tspan x="10" y="2170">  │ │ │ ├─┬ babel-register@6.24.1 </tspan>
<tspan x="10" y="2186">  │ │ │ │ ├─┬ home-or-tmp@2.0.0 </tspan>
<tspan x="10" y="2202">  │ │ │ │ │ └── os-homedir@1.0.2 </tspan>
<tspan x="10" y="2218">  │ │ │ │ └── source-map-support@0.4.14 </tspan>
<tspan x="10" y="2234">  │ │ │ ├── convert-source-map@1.5.0 </tspan>
<tspan x="10" y="2250">  │ │ │ ├── json5@0.5.1 </tspan>
<tspan x="10" y="2266">  │ │ │ ├── private@0.1.7 </tspan>
<tspan x="10" y="2282">  │ │ │ ├── slash@1.0.0 </tspan>
<tspan x="10" y="2298">  │ │ │ └── source-map@0.5.6 </tspan>
<tspan x="10" y="2314">  │ │ ├─┬ broccoli-persistent-filter@1.2.13 </tspan>
<tspan x="10" y="2330">  │ │ │ ├─┬ async-disk-cache@1.3.1 </tspan>
<tspan x="10" y="2346">  │ │ │ │ └─┬ istextorbinary@2.1.0 </tspan>
<tspan x="10" y="2362">  │ │ │ │   ├── binaryextensions@2.0.0 </tspan>
<tspan x="10" y="2378">  │ │ │ │   ├── editions@1.3.3 </tspan>
<tspan x="10" y="2394">  │ │ │ │   └── textextensions@2.1.0 </tspan>
<tspan x="10" y="2410">  │ │ │ └─┬ md5-hex@1.3.0 </tspan>
<tspan x="10" y="2426">  │ │ │   └── md5-o-matic@0.1.1 </tspan>
<tspan x="10" y="2442">  │ │ ├─┬ hash-for-dep@1.1.2 </tspan>
<tspan x="10" y="2458">  │ │ │ ├─┬ broccoli-kitchen-sink-helpers@0.3.1 </tspan>
<tspan x="10" y="2474">  │ │ │ │ └── glob@5.0.15 </tspan>
<tspan x="10" y="2490">  │ │ │ └─┬ resolve@1.3.3 </tspan>
<tspan x="10" y="2506">  │ │ │   └── path-parse@1.0.5 </tspan>
<tspan x="10" y="2522">  │ │ └─┬ json-stable-stringify@1.0.1 </tspan>
<tspan x="10" y="2538">  │ │   └── jsonify@0.0.0 </tspan>
<tspan x="10" y="2554">  │ ├── broccoli-source@1.1.0 </tspan>
<tspan x="10" y="2570">  │ ├── clone@2.1.1 </tspan>
<tspan x="10" y="2586">  │ └─┬ ember-cli-version-checker@1.3.1 </tspan>
<tspan x="10" y="2602">  │   └── semver@5.3.0 </tspan>
<tspan x="10" y="2618">  └─┬ jquery-mockjax@2.2.1 </tspan>
<tspan x="10" y="2634">    └── jquery@3.2.1</tspan>
</text>
</svg>
